# xmcd CD database file generated by Grip 2.96
# 
# Track frame offsets:
#       150
#       13922
#       32342
#       55775
#       70022
#       94575
#       110280
#       128032
#       140727
#       160852
#       180987
#       200477
#       227470
#       239500
#       255355
# 
# Disc length: 3579 seconds
# 
# Revision: 0
# Processed by: cddbd v1.4PL0 Copyright (c) Steve Scherf et al.
# Submitted via: Grip 2.96
# 
DISCID=ba0df90f
DTITLE=Al Hunter - The Singer
DYEAR=1900
DGENRE=
TTITLE0=The Longest Night on the Shortest Day
TTITLE1=Love Come Down
TTITLE2=Jewel on the Hill
TTITLE3=I don't want to go to work today
TTITLE4=The Singer
TTITLE5=Don't think twice
TTITLE6=Gary's Song
TTITLE7=Mary Jane and Freddy
TTITLE8=Wishin' and Fishin'
TTITLE9=Pukemiro
TTITLE10=Some days you just can't win
TTITLE11=The river song
TTITLE12=Big hunk of love
TTITLE13=Sit down and let me buy you a beer
TTITLE14=There's a blue sky waiting for me
EXTD=
EXTT0=
EXTT1=
EXTT2=
EXTT3=
EXTT4=
EXTT5=
EXTT6=
EXTT7=
EXTT8=
EXTT9=
EXTT10=
EXTT11=
EXTT12=
EXTT13=
EXTT14=
PLAYORDER=
